Coordinates
version=1
nRows=20
nColumns=34
inDegrees=yes

Units are S.I. units (second, meters, Newtons, ...)
Angles are in degrees.

endheader
time	pelvis_tilt	pelvis_list	pelvis_rotation	pelvis_tx	pelvis_ty	pelvis_tz	hip_flexion_r	hip_adduction_r	hip_rotation_r	knee_angle_r	ankle_angle_r	subtalar_angle_r	mtp_angle_r	hip_flexion_l	hip_adduction_l	hip_rotation_l	knee_angle_l	socket_flexion	socket_adduction	socket_rotation	socket_tx	socket_ty	socket_tz	pros_ankle_rx	pros_ankle_ry	pros_ankle_rz	pros_ankle_tx	pros_ankle_ty	pros_ankle_tz	foot_flex	lumbar_extension	lumbar_bending	lumbar_rotation
      0.89166667	      1.01305422	     -7.37497326	      3.79161138	      0.44275503	      1.04451303	      0.40087169	      9.94650219	      9.44968984	     -9.22978673	    -20.11741626	      9.09477385	     10.85048054	     12.28764182	     17.05462336	    -11.19885228	     -1.06837421	    -72.65610760	     -5.30818794	      1.02787115	     -7.23035709	      0.00000000	     -0.00768668	      0.00000000	      0.00000000	      0.00000000	      0.00000000	      0.00000000	      0.00000000	      0.00000000	     -1.49634028	    -20.95228755	      1.21274046	      2.98939717
      0.89583333	      0.96048269	     -7.25760733	      3.75947434	      0.44791245	      1.04562390	      0.40083560	      9.49532987	      9.36578472	     -9.18178756	    -19.79014282	      9.05680632	     10.94787349	     12.32322845	     17.63721456	    -10.96266423	     -0.89290251	    -72.32877949	     -5.36034384	      1.02891986	     -6.89557847	      0.00000000	     -0.00730323	      0.00000000	      0.00000000	      0.00000000	      0.00000000	      0.00000000	      0.00000000	      0.00000000	     -1.50672915	    -20.91557513	      1.08003038	      2.97581343
      0.90000000	      0.90439075	     -7.15125977	      3.73074717	      0.45314995	      1.04674498	      0.40077731	      9.02355026	      9.29184614	     -9.14880754	    -19.40824330	      8.98145462	     11.05382859	     12.36688585	     18.19931345	    -10.73527281	     -0.72524194	    -71.95436260	     -5.42361699	      1.03275532	     -6.59454255	      0.00000000	     -0.00688305	      0.00000000	      0.00000000	      0.00000000	      0.00000000	      0.00000000	      0.00000000	      0.00000000	     -1.50808453	    -20.83943878	      0.90624608	      2.95156463
      0.90416667	      0.84792297	     -7.04279406	      3.68875819	      0.45831507	      1.04785747	      0.40074919	      8.56302571	      9.21478966	     -9.11179887	    -19.03970254	      8.89518233	     11.15742329	     12.41621244	     18.74690041	    -10.51161816	     -0.57414486	    -71.52950700	     -5.47835596	      1.03665785	     -6.28369467	      0.00000000	     -0.00644817	      0.00000000	      0.00000000	      0.00000000	      0.00000000	      0.00000000	      0.00000000	      0.00000000	     -1.51476654	    -20.77813177	      0.76063025	      2.93503645
      0.90833333	      0.79149084	     -6.94364657	      3.64017992	      0.46348100	      1.04894710	      0.40070959	      8.10693890	      9.14445991	     -9.07059957	    -18.68197365	      8.80654875	     11.26061787	     12.46834297	     19.27550176	    -10.30094066	     -0.43686649	    -71.06559804	     -5.54155737	      1.03482702	     -5.97993727	      0.00000000	     -0.00602087	      0.00000000	      0.00000000	      0.00000000	      0.00000000	      0.00000000	      0.00000000	      0.00000000	     -1.52106707	    -20.72339837	      0.62117935	      2.92807290
      0.91250000	      0.73272498	     -6.84458940	      3.58551199	      0.46860095	      1.05001706	      0.40065981	      7.66139160	      9.07364173	     -9.01965562	    -18.33057342	      8.72373410	     11.36632455	     12.51774559	     19.80381565	    -10.09177826	     -0.31430866	    -70.57075594	     -5.60601502	      1.01481622	     -5.67469619	      0.00000000	     -0.00550935	      0.00000000	      0.00000000	      0.00000000	      0.00000000	      0.00000000	      0.00000000	      0.00000000	     -1.53279840	    -20.67885375	      0.48547938	      2.93133394
      0.91666667	      0.85840436	     -6.57583399	      3.47526226	      0.47403349	      1.05178344	      0.40064072	      6.88929925	      8.83983680	     -8.90716261	    -17.76086004	      8.24872566	     11.34977662	     13.34208124	     19.63864167	     -9.64304789	     -0.18155505	    -69.14435111	     -5.22174330	      1.16310246	     -5.63625520	      0.00000000	     -0.00705104	      0.00000000	      0.00000000	      0.00000000	      0.00000000	      0.00000000	      0.00000000	      0.00000000	     -1.50907176	    -20.75217162	      0.13375422	      2.84399416
      0.92083333	      0.80119365	     -6.50445208	      3.41299181	      0.47910350	      1.05275949	      0.40063347	      6.45692493	      8.79364293	     -8.87652064	    -17.42717835	      8.22041443	     11.49398765	     13.40381960	     20.18893263	     -9.49778400	     -0.11697773	    -68.69123557	     -5.37134062	      1.12366995	     -5.32532770	      0.00000000	     -0.00621831	      0.00000000	      0.00000000	      0.00000000	      0.00000000	      0.00000000	      0.00000000	      0.00000000	     -1.51574307	    -20.72022596	      0.00504708	      2.88824549
      0.92500000	      0.73658421	     -6.44421445	      3.34277693	      0.48406982	      1.05371922	      0.40057617	      6.05865144	      8.75271078	     -8.83153825	    -17.13143212	      8.16414939	     11.62105295	     13.44622009	     20.72968315	     -9.35240021	     -0.04448952	    -68.17658207	     -5.49899902	      1.08011365	     -5.02547033	      0.00000000	     -0.00546352	      0.00000000	      0.00000000	      0.00000000	      0.00000000	      0.00000000	      0.00000000	      0.00000000	     -1.53246863	    -20.70305708	     -0.08122857	      2.92929367
      0.92916667	      0.83347789	     -6.22751551	      3.17014733	      0.48951937	      1.05528976	      0.40069058	      5.34252089	      8.56963601	     -8.69313674	    -16.60552968	      7.72270017	     11.72437739	     14.23020887	     20.59684334	     -9.04130856	     -0.06253036	    -66.76655909	     -5.21750779	      1.14488385	     -4.91808338	      0.00000000	     -0.00661526	      0.00000000	      0.00000000	      0.00000000	      0.00000000	      0.00000000	      0.00000000	      0.00000000	     -1.50662248	    -20.72219415	     -0.40183128	      3.00304904
      0.93333333	      0.76537457	     -6.18471282	      3.10179402	      0.49442583	      1.05613778	      0.40063120	      4.96960914	      8.53998484	     -8.66675838	    -16.34655986	      7.72307502	     11.83516917	     14.26074423	     21.16104453	     -8.92162119	      0.00244599	    -66.27176106	     -5.39703382	      1.10965192	     -4.65321571	      0.00000000	     -0.00558920	      0.00000000	      0.00000000	      0.00000000	      0.00000000	      0.00000000	      0.00000000	      0.00000000	     -1.52009379	    -20.74404513	     -0.47574960	      3.03874749
      0.93750000	      0.67360187	     -6.15567093	      3.02816151	      0.49950989	      1.05696957	      0.40058135	      4.56519988	      8.52870141	     -8.63411254	    -15.97600479	      7.61674233	     11.99540264	     14.29666432	     21.66098852	     -8.82352972	      0.04872683	    -65.63811530	     -5.55753198	      1.06738859	     -4.39812393	      0.00000000	     -0.00487155	      0.00000000	      0.00000000	      0.00000000	      0.00000000	      0.00000000	      0.00000000	      0.00000000	     -1.51292191	    -20.63527425	     -0.56582910	      3.07929769
      0.94166667	      0.66106698	     -6.15317279	      2.86628302	      0.50430064	      1.05771163	      0.40050596	      4.24748703	      8.50683184	     -8.64306255	    -15.93486047	      7.58991469	     12.03578595	     14.30635666	     22.11371993	     -8.74958418	      0.09467262	    -65.14909866	     -5.85065903	      1.10660312	     -4.25463262	      0.00000000	     -0.00394236	      0.00000000	      0.00000000	      0.00000000	      0.00000000	      0.00000000	      0.00000000	      0.00000000	     -1.47144253	    -20.66467206	     -0.57118896	      3.09676411
      0.94583333	      0.48194460	     -6.08575066	      2.75980339	      0.50995921	      1.05873412	      0.40063237	      3.72022238	      8.49287427	     -8.49642082	    -15.16669792	      7.06214109	     12.35075239	     14.43615147	     22.36923203	     -8.64236768	      0.04031764	    -63.82675410	     -5.65923659	      1.04600438	     -4.00367319	      0.00000000	     -0.00444788	      0.00000000	      0.00000000	      0.00000000	      0.00000000	      0.00000000	      0.00000000	      0.00000000	     -1.46664073	    -20.18955260	     -0.72333482	      3.18957761
      0.95000000	      0.47786225	     -6.08324017	      2.61696418	      0.51459250	      1.05941462	      0.40057443	      3.42876534	      8.47508807	     -8.49996081	    -15.17414548	      7.07094636	     12.36597957	     14.45101563	     22.82754177	     -8.57162572	      0.09090032	    -63.32872816	     -5.98061853	      1.06671351	     -3.89411503	      0.00000000	     -0.00330417	      0.00000000	      0.00000000	      0.00000000	      0.00000000	      0.00000000	      0.00000000	      0.00000000	     -1.42594513	    -20.27952543	     -0.73565029	      3.20945644
      0.95416667	      0.55340794	     -5.70474888	      2.36501309	      0.52013777	      1.06125348	      0.40079987	      2.62964332	      8.13629329	     -8.10762689	    -14.44349186	      6.61998983	     12.34320380	     15.26555740	     22.22398844	     -8.07719617	      0.02710112	    -60.76544520	     -5.11701407	      1.19562711	     -4.00003191	      0.00000000	     -0.00586234	      0.00000000	      0.00000000	      0.00000000	      0.00000000	      0.00000000	      0.00000000	      0.00000000	     -1.42793960	    -20.36243939	     -1.31740688	      3.45717150
      0.95833333	      0.47044079	     -5.72864878	      2.29790512	      0.52502701	      1.06187363	      0.40071911	      2.28214153	      8.16750259	     -8.10645730	    -14.17279922	      6.56751490	     12.49284000	     15.32199927	     22.71589446	     -8.05135079	      0.06012490	    -60.10517646	     -5.35568768	      1.14570419	     -3.78772149	      0.00000000	     -0.00480100	      0.00000000	      0.00000000	      0.00000000	      0.00000000	      0.00000000	      0.00000000	      0.00000000	     -1.40630806	    -20.34343664	     -1.33835452	      3.48584797
      0.96250000	      0.48087053	     -5.75280852	      2.15690396	      0.52960087	      1.06245807	      0.40059091	      1.98786061	      8.16045477	     -8.12272328	    -14.19366248	      6.55162427	     12.52141374	     15.33159187	     23.15774820	     -8.01871695	      0.09852165	    -59.59912998	     -5.71693155	      1.16821893	     -3.70435342	      0.00000000	     -0.00346888	      0.00000000	      0.00000000	      0.00000000	      0.00000000	      0.00000000	      0.00000000	      0.00000000	     -1.34898516	    -20.38090797	     -1.33136750	      3.49798843
      0.96666667	      0.22610656	     -5.79807305	      2.10318152	      0.53512770	      1.06301853	      0.40061916	      1.58920910	      8.25279511	     -8.04991196	    -13.47870063	      6.29210490	     12.85015392	     15.41153828	     23.56937076	     -8.04615097	      0.06611326	    -58.41867902	     -5.72797906	      1.07403941	     -3.37910829	      0.00000000	     -0.00336369	      0.00000000	      0.00000000	      0.00000000	      0.00000000	      0.00000000	      0.00000000	      0.00000000	     -1.35213453	    -20.04380970	     -1.33430587	      3.59107099
      0.97083333	      0.28055251	     -5.46393375	      1.73882574	      0.54043454	      1.06447572	      0.40082272	      1.00957727	      7.89583018	     -7.71970466	    -13.11252273	      5.82240944	     12.81149047	     16.21320412	     22.96313683	     -7.60620933	      0.00879400	    -55.81328083	     -4.91674585	      1.25878110	     -3.68713855	      0.00000000	     -0.00558547	      0.00000000	      0.00000000	      0.00000000	      0.00000000	      0.00000000	      0.00000000	      0.00000000	     -1.28212047	    -19.96983960	     -1.81407585	      3.84786293
